<svg width="24" height="24" viewBox="0 0 24 24" fill="none" xmlns="http://www.w3.org/2000/svg">
<path d="M10.2656 20.9922C10.4411 21.2961 10.6935 21.5484 10.9974 21.7239C11.3013 21.8993 11.646 21.9917 11.9969 21.9917C12.3478 21.9917 12.6925 21.8993 12.9964 21.7239C13.3003 21.5484 13.5527 21.2961 13.7282 20.9922" stroke="#FBF0C4" stroke-width="1.99917" stroke-linecap="round" stroke-linejoin="round"/>
<path d="M3.26116 15.3205C3.13058 15.4636 3.0444 15.6416 3.01312 15.8328C2.98183 16.024 3.00679 16.2201 3.08494 16.3974C3.16309 16.5747 3.29108 16.7254 3.45334 16.8313C3.61559 16.9372 3.80511 16.9936 3.99885 16.9938H19.9922C20.1859 16.9938 20.3755 16.9376 20.5378 16.8319C20.7002 16.7263 20.8283 16.5757 20.9067 16.3985C20.9851 16.2214 21.0103 16.0252 20.9792 15.834C20.9482 15.6428 20.8623 15.4647 20.7319 15.3215C19.4024 13.951 17.993 12.4946 17.993 7.9975C17.993 6.40687 17.3611 4.88138 16.2364 3.75663C15.1116 2.63188 13.5862 2 11.9955 2C10.4049 2 8.8794 2.63188 7.75465 3.75663C6.6299 4.88138 5.99802 6.40687 5.99802 7.9975C5.99802 12.4946 4.58761 13.951 3.26116 15.3205Z" stroke="#FBF0C4" stroke-width="1.99917" stroke-linecap="round" stroke-linejoin="round"/>
</svg>
