<svg width="14" height="17" viewBox="0 0 14 17" fill="none" xmlns="http://www.w3.org/2000/svg">
<path fill-rule="evenodd" clip-rule="evenodd" d="M9.90504 0C10.0098 0.995348 9.62577 1.99571 9.05518 2.7143C8.48457 3.43336 7.54806 3.99184 6.63133 3.91804C6.5064 2.94239 6.96941 1.92443 7.49811 1.28843C8.08804 0.570224 9.08258 0.034392 9.90504 0ZM13.3009 12.4698C13.202 12.4282 11.1339 11.5567 11.1114 9.03164C11.0932 6.92537 12.7298 5.89023 12.8703 5.80138C12.8733 5.7995 12.8756 5.79805 12.8772 5.79701C11.9169 4.33462 10.4215 4.13379 9.88875 4.11072C9.11036 4.02865 8.35519 4.33857 7.7385 4.59166C7.34697 4.75235 7.01126 4.89012 6.76088 4.89012C6.48151 4.89012 6.13634 4.74768 5.74904 4.58786C5.24192 4.37859 4.66258 4.13952 4.0642 4.15139C2.67678 4.17237 1.39853 4.99035 0.68326 6.28209C-0.756561 8.88323 0.315734 12.7367 1.71888 14.8473C2.40556 15.8791 3.22397 17.0413 4.29871 16.999C4.77967 16.9793 5.12157 16.8278 5.47508 16.6711C5.88278 16.4905 6.30594 16.303 6.97567 16.303C7.61549 16.303 8.02008 16.4851 8.40911 16.6602C8.78062 16.8274 9.13793 16.9882 9.67235 16.978C10.7858 16.9566 11.4926 15.9248 12.1736 14.8892C12.9361 13.7298 13.2649 12.6062 13.3016 12.4805C13.3029 12.4763 13.3038 12.4733 13.3043 12.4713C13.3039 12.4711 13.3027 12.4706 13.3009 12.4698Z" fill="#42262B"/>
</svg>
