<svg width="40" height="40" viewBox="0 0 40 40" fill="none" xmlns="http://www.w3.org/2000/svg">
<path d="M0 19.9917C0 8.95057 8.95057 0 19.9917 0C31.0328 0 39.9833 8.95057 39.9833 19.9917C39.9833 31.0328 31.0328 39.9833 19.9917 39.9833C8.95057 39.9833 0 31.0328 0 19.9917Z" fill="url(#paint0_linear_637_4234)"/>
<g clip-path="url(#clip0_637_4234)">
<path d="M18.543 27.4805C18.6892 27.7337 18.8995 27.944 19.1528 28.0902C19.406 28.2364 19.6933 28.3134 19.9857 28.3134C20.2781 28.3134 20.5654 28.2364 20.8187 28.0902C21.0719 27.944 21.2822 27.7337 21.4284 27.4805" stroke="#42262B" stroke-width="1.66597" stroke-linecap="round" stroke-linejoin="round"/>
<path d="M12.7059 22.7537C12.5971 22.873 12.5253 23.0213 12.4992 23.1806C12.4731 23.3399 12.4939 23.5034 12.5591 23.6512C12.6242 23.7989 12.7309 23.9245 12.8661 24.0127C13.0013 24.101 13.1592 24.148 13.3207 24.1481H26.6484C26.8099 24.1482 26.9678 24.1013 27.1031 24.0133C27.2384 23.9252 27.3452 23.7997 27.4105 23.6521C27.4758 23.5044 27.4968 23.341 27.471 23.1817C27.4451 23.0223 27.3735 22.8739 27.2649 22.7545C26.157 21.6125 24.9825 20.3988 24.9825 16.6512C24.9825 15.3257 24.4559 14.0545 23.5186 13.1172C22.5813 12.1799 21.3101 11.6533 19.9845 11.6533C18.659 11.6533 17.3878 12.1799 16.4505 13.1172C15.5132 14.0545 14.9866 15.3257 14.9866 16.6512C14.9866 20.3988 13.8113 21.6125 12.7059 22.7537Z" stroke="#42262B" stroke-width="1.66597" stroke-linecap="round" stroke-linejoin="round"/>
</g>
<defs>
<linearGradient id="paint0_linear_637_4234" x1="0.00113084" y1="40.0803" x2="0.00113084" y2="-6.56949" gradientUnits="userSpaceOnUse">
<stop stop-color="#E2D8B0"/>
<stop offset="1" stop-color="#FBF0C4"/>
</linearGradient>
<clipPath id="clip0_637_4234">
<rect width="19.9917" height="19.9917" fill="white" transform="translate(9.98828 9.9873)"/>
</clipPath>
</defs>
</svg>
