<svg width="16" height="16" viewBox="0 0 16 16" fill="none" xmlns="http://www.w3.org/2000/svg">
<path d="M7.33014 14.4805C7.53274 14.5974 7.76257 14.659 7.99652 14.659C8.23048 14.659 8.46031 14.5974 8.66291 14.4805L13.3276 11.8149C13.53 11.6981 13.6982 11.53 13.8151 11.3277C13.9321 11.1253 13.9938 10.8958 13.994 10.6621V5.33095C13.9938 5.09723 13.9321 4.86768 13.8151 4.66534C13.6982 4.46299 13.53 4.29496 13.3276 4.1781L8.66291 1.51254C8.46031 1.39557 8.23048 1.33398 7.99652 1.33398C7.76257 1.33398 7.53274 1.39557 7.33014 1.51254L2.66541 4.1781C2.46301 4.29496 2.29489 4.46299 2.17792 4.66534C2.06096 4.86768 1.99926 5.09723 1.99902 5.33095V10.6621C1.99926 10.8958 2.06096 11.1253 2.17792 11.3277C2.29489 11.53 2.46301 11.6981 2.66541 11.8149L7.33014 14.4805Z" stroke="#FBF0C4" stroke-opacity="0.3" stroke-width="1.33278" stroke-linecap="round" stroke-linejoin="round"/>
<path d="M7.99707 14.66V7.99609" stroke="#FBF0C4" stroke-opacity="0.3" stroke-width="1.33278" stroke-linecap="round" stroke-linejoin="round"/>
<path d="M2.19238 4.66406L7.99663 7.99601L13.8009 4.66406" stroke="#FBF0C4" stroke-opacity="0.3" stroke-width="1.33278" stroke-linecap="round" stroke-linejoin="round"/>
<path d="M4.99805 2.8457L10.9955 6.27761" stroke="#FBF0C4" stroke-opacity="0.3" stroke-width="1.33278" stroke-linecap="round" stroke-linejoin="round"/>
</svg>
