<svg width="48" height="48" viewBox="0 0 48 48" fill="none" xmlns="http://www.w3.org/2000/svg">
<path d="M0 23.9987C0 10.7446 10.7446 0 23.9987 0C37.2528 0 47.9973 10.7446 47.9973 23.9987C47.9973 37.2528 37.2528 47.9973 23.9987 47.9973C10.7446 47.9973 0 37.2528 0 23.9987Z" fill="#FBF0C4"/>
<path d="M14.9874 28.3396C15.1344 28.7104 15.1671 29.1166 15.0813 29.5061L14.0168 32.7948C13.9825 32.9615 13.9913 33.1343 14.0425 33.2967C14.0937 33.4591 14.1856 33.6057 14.3093 33.7227C14.4331 33.8396 14.5846 33.923 14.7497 33.9649C14.9147 34.0069 15.0877 34.006 15.2523 33.9623L18.6638 32.9647C19.0314 32.8918 19.4121 32.9237 19.7624 33.0567C21.8969 34.0535 24.3149 34.2644 26.5897 33.6521C28.8645 33.0399 30.85 31.6439 32.1959 29.7104C33.5418 27.7769 34.1615 25.4302 33.9458 23.0844C33.73 20.7385 32.6927 18.5442 31.0168 16.8886C29.3408 15.233 27.134 14.2225 24.7857 14.0355C22.4373 13.8484 20.0984 14.4968 18.1815 15.8662C16.2646 17.2355 14.8929 19.238 14.3085 21.5201C13.7242 23.8023 13.9646 26.2175 14.9874 28.3396Z" stroke="#42262B" stroke-width="1.99917" stroke-linecap="round" stroke-linejoin="round"/>
</svg>
