<svg width="48" height="48" viewBox="0 0 48 48" fill="none" xmlns="http://www.w3.org/2000/svg">
<path d="M0 23.9987C0 10.7446 10.7446 0 23.9987 0C37.2528 0 47.9973 10.7446 47.9973 23.9987C47.9973 37.2528 37.2528 47.9973 23.9987 47.9973C10.7446 47.9973 0 37.2528 0 23.9987Z" fill="#42262B"/>
<path d="M13.9951 21.4999C13.9951 20.3876 14.3326 19.3014 14.9628 18.3849C15.5931 17.4684 16.4866 16.7646 17.5253 16.3665C18.5639 15.9684 19.6989 15.8947 20.7803 16.1552C21.8617 16.4157 22.8387 16.9981 23.5821 17.8255C23.6345 17.8815 23.6978 17.9261 23.7681 17.9566C23.8384 17.9871 23.9143 18.0029 23.991 18.0029C24.0676 18.0029 24.1435 17.9871 24.2138 17.9566C24.2841 17.9261 24.3474 17.8815 24.3998 17.8255C25.1409 16.9927 26.1181 16.4054 27.2012 16.1418C28.2844 15.8781 29.4222 15.9506 30.4631 16.3496C31.5041 16.7485 32.3988 17.4551 33.0283 18.3751C33.6578 19.2952 33.9921 20.3852 33.9868 21.4999C33.9868 23.789 32.4874 25.4983 30.988 26.9977L25.4983 32.3084C25.3121 32.5224 25.0824 32.6942 24.8247 32.8125C24.5669 32.9309 24.2869 32.993 24.0032 32.9948C23.7196 32.9966 23.4388 32.938 23.1796 32.823C22.9203 32.7079 22.6885 32.539 22.4996 32.3274L16.9939 26.9977C15.4945 25.4983 13.9951 23.799 13.9951 21.4999Z" stroke="#EBE1B7" stroke-width="1.99917" stroke-linecap="round" stroke-linejoin="round"/>
</svg>
