<svg width="40" height="40" viewBox="0 0 40 40" fill="none" xmlns="http://www.w3.org/2000/svg">
<path d="M0 19.9917C0 8.95057 8.95057 0 19.9917 0C31.0328 0 39.9833 8.95057 39.9833 19.9917C39.9833 31.0328 31.0328 39.9833 19.9917 39.9833C8.95057 39.9833 0 31.0328 0 19.9917Z" fill="#FBF0C4"/>
<g clip-path="url(#clip0_637_8937)">
<path d="M28.1473 18.3269C28.5277 20.1939 28.2566 22.1348 27.3791 23.8261C26.5017 25.5174 25.071 26.8567 23.3256 27.6208C21.5801 28.3848 19.6255 28.5275 17.7877 28.0248C15.9498 27.5222 14.3399 26.4047 13.2262 24.8587C12.1126 23.3127 11.5626 21.4316 11.668 19.5292C11.7734 17.6268 12.5279 15.818 13.8055 14.4045C15.0831 12.991 16.8067 12.0582 18.6888 11.7617C20.5709 11.4651 22.4978 11.8228 24.1481 12.775" stroke="#42262B" stroke-width="1.66597" stroke-linecap="round" stroke-linejoin="round"/>
<path d="M17.4844 19.159L19.9833 21.658L28.3132 13.3281" stroke="#42262B" stroke-width="1.66597" stroke-linecap="round" stroke-linejoin="round"/>
</g>
<defs>
<clipPath id="clip0_637_8937">
<rect width="19.9917" height="19.9917" fill="white" transform="translate(9.9873 9.99609)"/>
</clipPath>
</defs>
</svg>
