<svg width="28" height="28" viewBox="0 0 28 28" fill="none" xmlns="http://www.w3.org/2000/svg">
<path d="M9.32912 16.3267C13.1935 16.3267 16.3262 13.194 16.3262 9.3296C16.3262 5.46522 13.1935 2.33252 9.32912 2.33252C5.46473 2.33252 2.33203 5.46522 2.33203 9.3296C2.33203 13.194 5.46473 16.3267 9.32912 16.3267Z" stroke="#FBF0C4" stroke-width="2.33236" stroke-linecap="round" stroke-linejoin="round"/>
<path d="M21.0965 12.0933C22.1989 12.5043 23.1799 13.1866 23.9487 14.0772C24.7175 14.9677 25.2493 16.0378 25.495 17.1884C25.7407 18.339 25.6923 19.5329 25.3543 20.6598C25.0163 21.7868 24.3995 22.8103 23.5611 23.6357C22.7227 24.4611 21.6898 25.0618 20.5577 25.3822C19.4256 25.7026 18.2311 25.7323 17.0845 25.4687C15.9379 25.2051 14.8762 24.6566 13.9978 23.874C13.1193 23.0914 12.4523 22.0999 12.0586 20.9912" stroke="#FBF0C4" stroke-width="2.33236" stroke-linecap="round" stroke-linejoin="round"/>
<path d="M8.16309 6.99707H9.32927V11.6618" stroke="#FBF0C4" stroke-width="2.33236" stroke-linecap="round" stroke-linejoin="round"/>
<path d="M19.487 16.1866L20.3033 17.0146L17.0146 20.3033" stroke="#FBF0C4" stroke-width="2.33236" stroke-linecap="round" stroke-linejoin="round"/>
</svg>
