<svg width="40" height="40" viewBox="0 0 40 40" fill="none" xmlns="http://www.w3.org/2000/svg">
<path d="M0 19.9917C0 8.95057 8.95057 0 19.9917 0C31.0328 0 39.9833 8.95057 39.9833 19.9917C39.9833 31.0328 31.0328 39.9833 19.9917 39.9833C8.95057 39.9833 0 31.0328 0 19.9917Z" fill="url(#paint0_linear_637_8792)"/>
<g clip-path="url(#clip0_637_8792)">
<path d="M19.9834 11.6621V28.3218" stroke="#42262B" stroke-width="1.66597" stroke-linecap="round" stroke-linejoin="round"/>
<path d="M24.1482 14.1602H17.9008C17.1276 14.1602 16.386 14.4673 15.8393 15.0141C15.2925 15.5608 14.9854 16.3024 14.9854 17.0756C14.9854 17.8488 15.2925 18.5904 15.8393 19.1371C16.386 19.6839 17.1276 19.9911 17.9008 19.9911H22.0657C22.839 19.9911 23.5805 20.2982 24.1273 20.845C24.674 21.3917 24.9812 22.1333 24.9812 22.9065C24.9812 23.6797 24.674 24.4213 24.1273 24.968C23.5805 25.5148 22.839 25.822 22.0657 25.822H14.9854" stroke="#42262B" stroke-width="1.66597" stroke-linecap="round" stroke-linejoin="round"/>
</g>
<defs>
<linearGradient id="paint0_linear_637_8792" x1="0.00113084" y1="40.0803" x2="0.00113084" y2="-6.56949" gradientUnits="userSpaceOnUse">
<stop stop-color="#E2D8B0"/>
<stop offset="1" stop-color="#FBF0C4"/>
</linearGradient>
<clipPath id="clip0_637_8792">
<rect width="19.9917" height="19.9917" fill="white" transform="translate(9.9873 9.99609)"/>
</clipPath>
</defs>
</svg>
