<svg width="48" height="48" viewBox="0 0 48 48" fill="none" xmlns="http://www.w3.org/2000/svg">
<path d="M0 23.9987C0 10.7446 10.7446 0 23.9987 0C37.2528 0 47.9973 10.7446 47.9973 23.9987C47.9973 37.2528 37.2528 47.9973 23.9987 47.9973C10.7446 47.9973 0 37.2528 0 23.9987Z" fill="url(#paint0_linear_637_252)"/>
<path d="M23.9887 17.0017C23.9887 16.4086 24.1646 15.8288 24.4941 15.3357C24.8236 14.8425 25.2919 14.4582 25.8399 14.2312C26.3878 14.0042 26.9908 13.9448 27.5725 14.0606C28.1542 14.1763 28.6885 14.4619 29.1079 14.8812C29.5273 15.3006 29.8129 15.835 29.9286 16.4167C30.0443 16.9984 29.9849 17.6013 29.7579 18.1493C29.531 18.6972 29.1466 19.1655 28.6535 19.4951C28.1603 19.8246 27.5806 20.0004 26.9875 20.0004M23.9887 17.0017C23.9887 16.4086 23.8128 15.8288 23.4833 15.3357C23.1538 14.8425 22.6855 14.4582 22.1375 14.2312C21.5896 14.0042 20.9866 13.9448 20.4049 14.0606C19.8232 14.1763 19.2889 14.4619 18.8695 14.8812C18.4501 15.3006 18.1645 15.835 18.0488 16.4167C17.9331 16.9984 17.9925 17.6013 18.2195 18.1493C18.4464 18.6972 18.8308 19.1655 19.3239 19.4951C19.8171 19.8246 20.3969 20.0004 20.99 20.0004M23.9887 17.0017V18.0013M26.9875 20.0004C27.5806 20.0004 28.1603 20.1763 28.6535 20.5058C29.1466 20.8353 29.531 21.3037 29.7579 21.8516C29.9849 22.3996 30.0443 23.0025 29.9286 23.5842C29.8129 24.1659 29.5273 24.7002 29.1079 25.1196C28.6885 25.539 28.1542 25.8246 27.5725 25.9403C26.9908 26.056 26.3878 25.9966 25.8399 25.7697C25.2919 25.5427 24.8236 25.1583 24.4941 24.6652C24.1646 24.1721 23.9887 23.5923 23.9887 22.9992M26.9875 20.0004H25.9879M20.99 20.0004C20.3969 20.0004 19.8171 20.1763 19.3239 20.5058C18.8308 20.8353 18.4464 21.3037 18.2195 21.8516C17.9925 22.3996 17.9331 23.0025 18.0488 23.5842C18.1645 24.1659 18.4501 24.7002 18.8695 25.1196C19.2889 25.539 19.8232 25.8246 20.4049 25.9403C20.9866 26.056 21.5896 25.9966 22.1375 25.7697C22.6855 25.5427 23.1538 25.1583 23.4833 24.6652C23.8128 24.1721 23.9887 23.5923 23.9887 22.9992M20.99 20.0004H21.9895M23.9887 22.9992V21.9996" stroke="#42262B" stroke-width="1.99917" stroke-linecap="round" stroke-linejoin="round"/>
<path d="M23.9904 21.9993C25.0945 21.9993 25.9895 21.1043 25.9895 20.0001C25.9895 18.896 25.0945 18.001 23.9904 18.001C22.8863 18.001 21.9912 18.896 21.9912 20.0001C21.9912 21.1043 22.8863 21.9993 23.9904 21.9993Z" stroke="#42262B" stroke-width="1.99917" stroke-linecap="round" stroke-linejoin="round"/>
<path d="M23.9912 21.999V33.994" stroke="#42262B" stroke-width="1.99917" stroke-linecap="round" stroke-linejoin="round"/>
<path d="M23.9912 33.995C28.1895 33.995 30.9883 32.3287 30.9883 28.9971C26.79 28.9971 23.9912 30.6634 23.9912 33.995Z" stroke="#42262B" stroke-width="1.99917" stroke-linecap="round" stroke-linejoin="round"/>
<path d="M23.9883 33.995C19.79 33.995 16.9912 32.3287 16.9912 28.9971C21.1895 28.9971 23.9883 30.6634 23.9883 33.995Z" stroke="#42262B" stroke-width="1.99917" stroke-linecap="round" stroke-linejoin="round"/>
<defs>
<linearGradient id="paint0_linear_637_252" x1="0.0013575" y1="48.1138" x2="0.0013575" y2="-7.88623" gradientUnits="userSpaceOnUse">
<stop stop-color="#E2D8B0"/>
<stop offset="1" stop-color="#FBF0C4"/>
</linearGradient>
</defs>
</svg>
