<svg width="16" height="16" viewBox="0 0 16 16" fill="none" xmlns="http://www.w3.org/2000/svg">
<g clip-path="url(#clip0_637_4810)">
<path d="M14.0331 8.16319C14.0331 7.64341 13.9865 7.14362 13.8999 6.66382H6.99609V9.50263H10.9411C10.7678 10.4156 10.2481 11.1886 9.46839 11.7084V13.5543H11.8474C13.2335 12.2748 14.0331 10.3956 14.0331 8.16319Z" fill="#4285F4"/>
<path d="M6.99705 15.3268C8.97622 15.3268 10.6355 14.6738 11.8484 13.5543L9.46935 11.7084C8.81629 12.1482 7.9833 12.4147 6.99705 12.4147C5.09118 12.4147 3.47186 11.1286 2.8921 9.396H0.453125V11.2885C1.65929 13.6809 4.13158 15.3268 6.99705 15.3268Z" fill="#34A853"/>
<path d="M2.89328 9.38947C2.74668 8.94965 2.66005 8.48318 2.66005 7.99672C2.66005 7.51025 2.74668 7.04378 2.89328 6.60397V4.71143H0.454306C-0.0454846 5.69768 -0.332031 6.81055 -0.332031 7.99672C-0.332031 9.18289 -0.0454846 10.2958 0.454306 11.282L2.35351 9.80263L2.89328 9.38947Z" fill="#FBBC05"/>
<path d="M6.99705 3.58528C8.0766 3.58528 9.03619 3.95846 9.80254 4.67816L11.9017 2.57904C10.6289 1.39287 8.97622 0.666504 6.99705 0.666504C4.13158 0.666504 1.65929 2.31248 0.453125 4.71148L2.8921 6.60402C3.47186 4.87141 5.09118 3.58528 6.99705 3.58528Z" fill="#EA4335"/>
</g>
<defs>
<clipPath id="clip0_637_4810">
<rect width="15.9933" height="15.9933" fill="white"/>
</clipPath>
</defs>
</svg>
