<svg width="40" height="40" viewBox="0 0 40 40" fill="none" xmlns="http://www.w3.org/2000/svg">
<path d="M0 19.9917C0 8.95057 8.95057 0 19.9917 0C31.0328 0 39.9833 8.95057 39.9833 19.9917C39.9833 31.0328 31.0328 39.9833 19.9917 39.9833C8.95057 39.9833 0 31.0328 0 19.9917Z" fill="#FBF0C4"/>
<g clip-path="url(#clip0_637_9434)">
<path d="M19.9832 28.3218C24.5836 28.3218 28.313 24.5924 28.313 19.992C28.313 15.3915 24.5836 11.6621 19.9832 11.6621C15.3827 11.6621 11.6533 15.3915 11.6533 19.992C11.6533 24.5924 15.3827 28.3218 19.9832 28.3218Z" stroke="#42262B" stroke-width="1.66597" stroke-linecap="round" stroke-linejoin="round"/>
<path d="M17.5596 17.4939C17.7554 16.9372 18.142 16.4678 18.6507 16.1687C19.1595 15.8697 19.7577 15.7604 20.3394 15.8602C20.9211 15.96 21.4486 16.2624 21.8287 16.7139C22.2087 17.1653 22.4168 17.7368 22.4159 18.3269C22.4159 19.9929 19.9169 20.8259 19.9169 20.8259" stroke="#42262B" stroke-width="1.66597" stroke-linecap="round" stroke-linejoin="round"/>
<path d="M19.9834 24.1562H19.9917" stroke="#42262B" stroke-width="1.66597" stroke-linecap="round" stroke-linejoin="round"/>
</g>
<defs>
<clipPath id="clip0_637_9434">
<rect width="19.9917" height="19.9917" fill="white" transform="translate(9.9873 9.99609)"/>
</clipPath>
</defs>
</svg>
