<svg width="24" height="24" viewBox="0 0 24 24" fill="none" xmlns="http://www.w3.org/2000/svg">
<path d="M14.9936 20.9914V12.9947C14.9936 12.7296 14.8883 12.4753 14.7008 12.2879C14.5134 12.1004 14.2591 11.9951 13.994 11.9951H9.99568C9.73057 11.9951 9.47632 12.1004 9.28887 12.2879C9.10141 12.4753 8.99609 12.7296 8.99609 12.9947V20.9914" stroke="#FBF0C4" stroke-width="1.99917" stroke-linecap="round" stroke-linejoin="round"/>
<path d="M2.99902 9.99617C2.99895 9.70536 3.06233 9.41804 3.18473 9.15424C3.30714 8.89044 3.48562 8.65653 3.70773 8.46881L10.7048 2.47131C11.0656 2.16634 11.5228 1.99902 11.9953 1.99902C12.4677 1.99902 12.9249 2.16634 13.2857 2.47131L20.2828 8.46881C20.5049 8.65653 20.6834 8.89044 20.8058 9.15424C20.9282 9.41804 20.9916 9.70536 20.9915 9.99617V18.9924C20.9915 19.5226 20.7809 20.0311 20.406 20.406C20.0311 20.781 19.5226 20.9916 18.9924 20.9916H4.99819C4.46798 20.9916 3.95948 20.781 3.58457 20.406C3.20965 20.0311 2.99902 19.5226 2.99902 18.9924V9.99617Z" stroke="#FBF0C4" stroke-width="1.99917" stroke-linecap="round" stroke-linejoin="round"/>
</svg>
