<svg width="32" height="32" viewBox="0 0 32 32" fill="none" xmlns="http://www.w3.org/2000/svg">
<path d="M0 15.9933C0 7.16046 7.16046 0 15.9933 0C24.8262 0 31.9867 7.16046 31.9867 15.9933C31.9867 24.8262 24.8262 31.9867 15.9933 31.9867C7.16046 31.9867 0 24.8262 0 15.9933Z" fill="url(#paint0_linear_637_4099)"/>
<g clip-path="url(#clip0_637_4099)">
<path d="M9.32031 14.3278C9.32033 13.5862 9.54528 12.8621 9.96547 12.2511C10.3857 11.64 10.9813 11.1708 11.6737 10.9055C12.3662 10.6401 13.1228 10.5909 13.8438 10.7646C14.5647 10.9383 15.216 11.3265 15.7117 11.8781C15.7466 11.9154 15.7888 11.9452 15.8356 11.9655C15.8825 11.9859 15.9331 11.9964 15.9842 11.9964C16.0353 11.9964 16.0859 11.9859 16.1328 11.9655C16.1796 11.9452 16.2218 11.9154 16.2568 11.8781C16.7508 11.3229 17.4023 10.9314 18.1244 10.7556C18.8465 10.5799 19.605 10.6282 20.299 10.8942C20.993 11.1602 21.5895 11.6312 22.0091 12.2446C22.4287 12.8579 22.6516 13.5846 22.6481 14.3278C22.6481 15.8538 21.6485 16.9933 20.6489 17.9929L16.9891 21.5334C16.8649 21.676 16.7119 21.7906 16.54 21.8695C16.3682 21.9484 16.1815 21.9898 15.9924 21.991C15.8033 21.9922 15.6161 21.9531 15.4433 21.8764C15.2705 21.7997 15.1159 21.6871 14.99 21.5461L11.3195 17.9929C10.3199 16.9933 9.32031 15.8605 9.32031 14.3278Z" stroke="#42262B" stroke-width="1.33278" stroke-linecap="round" stroke-linejoin="round"/>
</g>
<defs>
<linearGradient id="paint0_linear_637_4099" x1="0.000904671" y1="32.0643" x2="0.000904671" y2="-5.25559" gradientUnits="userSpaceOnUse">
<stop stop-color="#E2D8B0"/>
<stop offset="1" stop-color="#FBF0C4"/>
</linearGradient>
<clipPath id="clip0_637_4099">
<rect width="15.9933" height="15.9933" fill="white" transform="translate(7.98828 7.99658)"/>
</clipPath>
</defs>
</svg>
