<svg width="16" height="16" viewBox="0 0 16 16" fill="none" xmlns="http://www.w3.org/2000/svg">
<g clip-path="url(#clip0_637_293)">
<path d="M1.33203 6.33118C1.33204 5.58962 1.557 4.86551 1.97718 4.25449C2.39737 3.64346 2.99302 3.17426 3.68546 2.90887C4.3779 2.64347 5.13455 2.59436 5.85549 2.76802C6.57643 2.94169 7.22773 3.32995 7.72337 3.88153C7.75828 3.91886 7.80048 3.94862 7.84737 3.96896C7.89425 3.98931 7.94481 3.9998 7.99592 3.9998C8.04703 3.9998 8.09759 3.98931 8.14448 3.96896C8.19136 3.94862 8.23357 3.91886 8.26848 3.88153C8.76256 3.32636 9.41401 2.93484 10.1361 2.75907C10.8582 2.5833 11.6167 2.63162 12.3107 2.8976C13.0047 3.16358 13.6012 3.6346 14.0208 4.24798C14.4405 4.86136 14.6634 5.58799 14.6598 6.33118C14.6598 7.85721 13.6602 8.99673 12.6606 9.99632L9.00084 13.5368C8.87667 13.6795 8.72357 13.794 8.55172 13.8729C8.37987 13.9518 8.1932 13.9932 8.00411 13.9944C7.81502 13.9956 7.62784 13.9566 7.45501 13.8799C7.28217 13.8031 7.12764 13.6905 7.00167 13.5495L3.3312 9.99632C2.33161 8.99673 1.33203 7.86387 1.33203 6.33118Z" fill="#FBF0C4" stroke="#FBF0C4" stroke-width="1.33278" stroke-linecap="round" stroke-linejoin="round"/>
</g>
<defs>
<clipPath id="clip0_637_293">
<rect width="15.9933" height="15.9933" fill="white"/>
</clipPath>
</defs>
</svg>
