<svg width="24" height="24" viewBox="0 0 24 24" fill="none" xmlns="http://www.w3.org/2000/svg">
<path d="M2 9.49628C2.00002 8.38394 2.33745 7.29778 2.96773 6.38124C3.59801 5.4647 4.49148 4.76091 5.53014 4.36282C6.5688 3.96472 7.70378 3.89106 8.78519 4.15155C9.86659 4.41204 10.8435 4.99443 11.587 5.82181C11.6394 5.8778 11.7027 5.92244 11.773 5.95295C11.8433 5.98347 11.9192 5.99922 11.9958 5.99922C12.0725 5.99922 12.1483 5.98347 12.2187 5.95295C12.289 5.92244 12.3523 5.8778 12.4047 5.82181C13.1458 4.98906 14.123 4.40177 15.2061 4.13811C16.2893 3.87446 17.4271 3.94694 18.468 4.34591C19.509 4.74488 20.4037 5.45142 21.0332 6.37148C21.6627 7.29155 21.997 8.3815 21.9917 9.49628C21.9917 11.7853 20.4923 13.4946 18.9929 14.994L13.5032 20.3048C13.317 20.5187 13.0873 20.6905 12.8295 20.8089C12.5718 20.9272 12.2918 20.9893 12.0081 20.9911C11.7245 20.9929 11.4437 20.9344 11.1845 20.8193C10.9252 20.7042 10.6934 20.5353 10.5045 20.3238L4.99875 14.994C3.49938 13.4946 2 11.7953 2 9.49628Z" stroke="#FBF0C4" stroke-width="1.99917" stroke-linecap="round" stroke-linejoin="round"/>
</svg>
