<svg width="40" height="40" viewBox="0 0 40 40" fill="none" xmlns="http://www.w3.org/2000/svg">
<path d="M0 19.9917C0 8.95057 8.95057 0 19.9917 0C31.0328 0 39.9833 8.95057 39.9833 19.9917C39.9833 31.0328 31.0328 39.9833 19.9917 39.9833C8.95057 39.9833 0 31.0328 0 19.9917Z" fill="url(#paint0_linear_637_4242)"/>
<g clip-path="url(#clip0_637_4242)">
<path d="M11.6514 17.9091C11.6514 16.9821 11.9326 16.077 12.4578 15.3132C12.983 14.5494 13.7276 13.9629 14.5931 13.6312C15.4587 13.2995 16.4045 13.2381 17.3057 13.4551C18.2069 13.6722 19.021 14.1576 19.6405 14.847C19.6842 14.8937 19.7369 14.9309 19.7955 14.9563C19.8541 14.9818 19.9173 14.9949 19.9812 14.9949C20.0451 14.9949 20.1083 14.9818 20.1669 14.9563C20.2255 14.9309 20.2783 14.8937 20.3219 14.847C20.9395 14.1531 21.7538 13.6637 22.6565 13.444C23.5591 13.2242 24.5073 13.2846 25.3747 13.6171C26.2422 13.9496 26.9878 14.5384 27.5124 15.3051C28.0369 16.0718 28.3155 16.9801 28.3111 17.9091C28.3111 19.8166 27.0616 21.241 25.8121 22.4905L21.2374 26.9162C21.0822 27.0944 20.8908 27.2376 20.676 27.3362C20.4612 27.4349 20.2278 27.4866 19.9915 27.4881C19.7551 27.4896 19.5211 27.4408 19.3051 27.3449C19.089 27.249 18.8959 27.1083 18.7384 26.932L14.1503 22.4905C12.9008 21.241 11.6514 19.825 11.6514 17.9091Z" stroke="#42262B" stroke-width="1.66597" stroke-linecap="round" stroke-linejoin="round"/>
</g>
<defs>
<linearGradient id="paint0_linear_637_4242" x1="0.00113084" y1="40.0803" x2="0.00113084" y2="-6.56949" gradientUnits="userSpaceOnUse">
<stop stop-color="#E2D8B0"/>
<stop offset="1" stop-color="#FBF0C4"/>
</linearGradient>
<clipPath id="clip0_637_4242">
<rect width="19.9917" height="19.9917" fill="white" transform="translate(9.9873 9.99585)"/>
</clipPath>
</defs>
</svg>
