<svg width="48" height="48" viewBox="0 0 48 48" fill="none" xmlns="http://www.w3.org/2000/svg">
<path d="M0 23.9987C0 10.7446 10.7446 0 23.9987 0C37.2528 0 47.9973 10.7446 47.9973 23.9987C47.9973 37.2528 37.2528 47.9973 23.9987 47.9973C10.7446 47.9973 0 37.2528 0 23.9987Z" fill="#42262B"/>
<path d="M23.0069 14.8168C23.0497 14.5875 23.1714 14.3804 23.3508 14.2313C23.5303 14.0823 23.7562 14.0007 23.9894 14.0007C24.2227 14.0007 24.4486 14.0823 24.6281 14.2313C24.8075 14.3804 24.9292 14.5875 24.972 14.8168L26.0226 20.3725C26.0972 20.7675 26.2892 21.1308 26.5734 21.415C26.8576 21.6992 27.2209 21.8912 27.6159 21.9658L33.1716 23.0164C33.4009 23.0592 33.608 23.1809 33.7571 23.3603C33.9061 23.5398 33.9877 23.7657 33.9877 23.999C33.9877 24.2322 33.9061 24.4581 33.7571 24.6376C33.608 24.817 33.4009 24.9387 33.1716 24.9816L27.6159 26.0321C27.2209 26.1067 26.8576 26.2987 26.5734 26.5829C26.2892 26.8672 26.0972 27.2305 26.0226 27.6255L24.972 33.1811C24.9292 33.4104 24.8075 33.6175 24.6281 33.7666C24.4486 33.9156 24.2227 33.9972 23.9894 33.9972C23.7562 33.9972 23.5303 33.9156 23.3508 33.7666C23.1714 33.6175 23.0497 33.4104 23.0069 33.1811L21.9563 27.6255C21.8817 27.2305 21.6897 26.8672 21.4055 26.5829C21.1213 26.2987 20.7579 26.1067 20.363 26.0321L14.8073 24.9816C14.578 24.9387 14.3709 24.817 14.2218 24.6376C14.0728 24.4581 13.9912 24.2322 13.9912 23.999C13.9912 23.7657 14.0728 23.5398 14.2218 23.3603C14.3709 23.1809 14.578 23.0592 14.8073 23.0164L20.363 21.9658C20.7579 21.8912 21.1213 21.6992 21.4055 21.415C21.6897 21.1308 21.8817 20.7675 21.9563 20.3725L23.0069 14.8168Z" stroke="#DDD8C4" stroke-width="1.99917" stroke-linecap="round" stroke-linejoin="round"/>
<path d="M31.9873 14.0027V18.001" stroke="#DDD8C4" stroke-width="1.99917" stroke-linecap="round" stroke-linejoin="round"/>
<path d="M33.9856 16.0017H29.9873" stroke="#DDD8C4" stroke-width="1.99917" stroke-linecap="round" stroke-linejoin="round"/>
<path d="M15.9943 33.9942C17.0984 33.9942 17.9935 33.0991 17.9935 31.995C17.9935 30.8909 17.0984 29.9958 15.9943 29.9958C14.8902 29.9958 13.9951 30.8909 13.9951 31.995C13.9951 33.0991 14.8902 33.9942 15.9943 33.9942Z" stroke="#DDD8C4" stroke-width="1.99917" stroke-linecap="round" stroke-linejoin="round"/>
</svg>
