<svg width="20" height="20" viewBox="0 0 20 20" fill="none" xmlns="http://www.w3.org/2000/svg">
<path d="M8.55273 17.4922C8.69896 17.7454 8.90927 17.9557 9.16252 18.1019C9.41577 18.2481 9.70304 18.3251 9.99547 18.3251C10.2879 18.3251 10.5752 18.2481 10.8284 18.1019C11.0817 17.9557 11.292 17.7454 11.4382 17.4922" stroke="#FBF0C4" stroke-width="1.66597" stroke-linecap="round" stroke-linejoin="round"/>
<path d="M2.71763 12.7664C2.60882 12.8857 2.537 13.034 2.51093 13.1933C2.48486 13.3526 2.50565 13.5161 2.57078 13.6638C2.63591 13.8116 2.74257 13.9372 2.87778 14.0254C3.01299 14.1137 3.17093 14.1607 3.33238 14.1608H16.6602C16.8216 14.1609 16.9796 14.114 17.1149 14.026C17.2502 13.9379 17.3569 13.8124 17.4222 13.6648C17.4876 13.5171 17.5085 13.3537 17.4827 13.1944C17.4568 13.035 17.3852 12.8866 17.2766 12.7672C16.1687 11.6252 14.9942 10.4115 14.9942 6.66393C14.9942 5.3384 14.4676 4.06716 13.5303 3.12987C12.593 2.19258 11.3218 1.66602 9.99627 1.66602C8.67074 1.66602 7.3995 2.19258 6.46221 3.12987C5.52492 4.06716 4.99835 5.3384 4.99835 6.66393C4.99835 10.4115 3.82301 11.6252 2.71763 12.7664Z" stroke="#FBF0C4" stroke-width="1.66597" stroke-linecap="round" stroke-linejoin="round"/>
</svg>
