<svg width="14" height="14" viewBox="0 0 14 14" fill="none" xmlns="http://www.w3.org/2000/svg">
<g clip-path="url(#clip0_637_4005)">
<path d="M9.32228 12.2376V11.0721C9.32228 10.4539 9.0767 9.86105 8.63957 9.42392C8.20244 8.98679 7.60956 8.74121 6.99136 8.74121H3.49498C2.87678 8.74121 2.28391 8.98679 1.84677 9.42392C1.40964 9.86105 1.16406 10.4539 1.16406 11.0721V12.2376" stroke="#F1E6BC" stroke-opacity="0.3" stroke-width="1.16546" stroke-linecap="round" stroke-linejoin="round"/>
<path d="M9.32422 1.82324C9.82406 1.95282 10.2667 2.24471 10.5827 2.65309C10.8987 3.06146 11.0702 3.56321 11.0702 4.07957C11.0702 4.59594 10.8987 5.09768 10.5827 5.50606C10.2667 5.91443 9.82406 6.20632 9.32422 6.3359" stroke="#F1E6BC" stroke-opacity="0.3" stroke-width="1.16546" stroke-linecap="round" stroke-linejoin="round"/>
<path d="M12.8185 12.237V11.0716C12.8181 10.5551 12.6462 10.0534 12.3298 9.64523C12.0134 9.23705 11.5704 8.94552 11.0703 8.81641" stroke="#F1E6BC" stroke-opacity="0.3" stroke-width="1.16546" stroke-linecap="round" stroke-linejoin="round"/>
<path d="M5.24498 6.40989C6.53231 6.40989 7.5759 5.3663 7.5759 4.07897C7.5759 2.79163 6.53231 1.74805 5.24498 1.74805C3.95765 1.74805 2.91406 2.79163 2.91406 4.07897C2.91406 5.3663 3.95765 6.40989 5.24498 6.40989Z" stroke="#F1E6BC" stroke-opacity="0.3" stroke-width="1.16546" stroke-linecap="round" stroke-linejoin="round"/>
</g>
<defs>
<clipPath id="clip0_637_4005">
<rect width="13.9855" height="13.9855" fill="white"/>
</clipPath>
</defs>
</svg>
