<svg width="20" height="20" viewBox="0 0 20 20" fill="none" xmlns="http://www.w3.org/2000/svg">
<g clip-path="url(#clip0_637_9287)">
<path d="M11.5219 13.801C11.6939 13.88 11.8878 13.898 12.0714 13.8521C12.2551 13.8063 12.4176 13.6992 12.5323 13.5486L12.828 13.1612C12.9832 12.9543 13.1844 12.7864 13.4158 12.6707C13.6471 12.5551 13.9022 12.4948 14.1608 12.4948H16.6598C17.1016 12.4948 17.5254 12.6704 17.8378 12.9828C18.1502 13.2952 18.3257 13.719 18.3257 14.1608V16.6598C18.3257 17.1016 18.1502 17.5254 17.8378 17.8378C17.5254 18.1502 17.1016 18.3257 16.6598 18.3257C12.6832 18.3257 8.86946 16.746 6.05758 13.9342C3.24571 11.1223 1.66602 7.30858 1.66602 3.33199C1.66602 2.89014 1.84154 2.4664 2.15397 2.15397C2.4664 1.84154 2.89014 1.66602 3.33199 1.66602H5.83095C6.27279 1.66602 6.69654 1.84154 7.00897 2.15397C7.3214 2.4664 7.49692 2.89014 7.49692 3.33199V5.83095C7.49692 6.08958 7.4367 6.34466 7.32104 6.57599C7.20537 6.80732 7.03744 7.00855 6.83053 7.16373L6.44069 7.4561C6.28777 7.57287 6.17999 7.73897 6.13565 7.9262C6.09131 8.11343 6.11315 8.31023 6.19746 8.48318C7.33589 10.7954 9.20823 12.6654 11.5219 13.801Z" stroke="#FBF0C4" stroke-width="1.66597" stroke-linecap="round" stroke-linejoin="round"/>
</g>
<defs>
<clipPath id="clip0_637_9287">
<rect width="19.9917" height="19.9917" fill="white"/>
</clipPath>
</defs>
</svg>
