<svg width="20" height="20" viewBox="0 0 20 20" fill="none" xmlns="http://www.w3.org/2000/svg">
<path d="M15.8268 9.16211H4.165C3.2449 9.16211 2.49902 9.90799 2.49902 10.8281V16.659C2.49902 17.5791 3.2449 18.325 4.165 18.325H15.8268C16.7469 18.325 17.4928 17.5791 17.4928 16.659V10.8281C17.4928 9.90799 16.7469 9.16211 15.8268 9.16211Z" stroke="#FBF0C4" stroke-width="1.66597" stroke-linecap="round" stroke-linejoin="round"/>
<path d="M5.83105 9.16289V5.83095C5.83105 4.72634 6.26986 3.66697 7.05093 2.8859C7.83201 2.10482 8.89138 1.66602 9.99599 1.66602C11.1006 1.66602 12.16 2.10482 12.941 2.8859C13.7221 3.66697 14.1609 4.72634 14.1609 5.83095V9.16289" stroke="#FBF0C4" stroke-width="1.66597" stroke-linecap="round" stroke-linejoin="round"/>
</svg>
