<svg width="40" height="40" viewBox="0 0 40 40" fill="none" xmlns="http://www.w3.org/2000/svg">
<path d="M0 19.9917C0 8.95057 8.95057 0 19.9917 0C31.0328 0 39.9833 8.95057 39.9833 19.9917C39.9833 31.0328 31.0328 39.9833 19.9917 39.9833C8.95057 39.9833 0 31.0328 0 19.9917Z" fill="url(#paint0_linear_637_8803)"/>
<path d="M19.5871 11.9078C19.6236 11.834 19.68 11.7719 19.7499 11.7285C19.8198 11.6851 19.9004 11.6621 19.9827 11.6621C20.065 11.6621 20.1457 11.6851 20.2156 11.7285C20.2855 11.7719 20.3419 11.834 20.3784 11.9078L22.3026 15.8053C22.4294 16.0618 22.6165 16.2838 22.8479 16.4521C23.0793 16.6204 23.3481 16.73 23.6312 16.7716L27.9344 17.4013C28.016 17.4131 28.0926 17.4475 28.1556 17.5006C28.2186 17.5537 28.2655 17.6233 28.291 17.7017C28.3164 17.78 28.3195 17.8639 28.2998 17.9439C28.28 18.0239 28.2383 18.0968 28.1793 18.1543L25.0673 21.1847C24.862 21.3847 24.7085 21.6316 24.6198 21.9041C24.5312 22.1766 24.5101 22.4666 24.5583 22.7491L25.293 27.0306C25.3074 27.1121 25.2986 27.196 25.2676 27.2728C25.2366 27.3495 25.1847 27.416 25.1177 27.4646C25.0508 27.5132 24.9715 27.5421 24.8889 27.5478C24.8063 27.5536 24.7238 27.536 24.6508 27.4971L20.8041 25.4746C20.5506 25.3415 20.2686 25.272 19.9823 25.272C19.696 25.272 19.414 25.3415 19.1606 25.4746L15.3147 27.4971C15.2416 27.5358 15.1592 27.5531 15.0768 27.5473C14.9944 27.5414 14.9153 27.5126 14.8484 27.464C14.7816 27.4154 14.7298 27.349 14.6988 27.2724C14.6678 27.1958 14.659 27.112 14.6733 27.0306L15.4071 22.7499C15.4556 22.4673 15.4346 22.1771 15.3459 21.9045C15.2573 21.6318 15.1036 21.3848 14.8982 21.1847L11.7861 18.1551C11.7267 18.0977 11.6845 18.0247 11.6645 17.9445C11.6445 17.8642 11.6474 17.78 11.6729 17.7013C11.6984 17.6227 11.7456 17.5528 11.8089 17.4996C11.8722 17.4464 11.9492 17.412 12.031 17.4005L16.3334 16.7716C16.6168 16.7303 16.886 16.6208 17.1177 16.4525C17.3495 16.2842 17.5368 16.0621 17.6637 15.8053L19.5871 11.9078Z" stroke="#42262B" stroke-width="1.66597" stroke-linecap="round" stroke-linejoin="round"/>
<defs>
<linearGradient id="paint0_linear_637_8803" x1="0.00113084" y1="40.0803" x2="0.00113084" y2="-6.56949" gradientUnits="userSpaceOnUse">
<stop stop-color="#E2D8B0"/>
<stop offset="1" stop-color="#FBF0C4"/>
</linearGradient>
</defs>
</svg>
