<svg width="16" height="16" viewBox="0 0 16 16" fill="none" xmlns="http://www.w3.org/2000/svg">
<g clip-path="url(#clip0_637_308)">
<path d="M11.9953 5.33134C13.0994 5.33134 13.9944 4.43628 13.9944 3.33218C13.9944 2.22807 13.0994 1.33301 11.9953 1.33301C10.8912 1.33301 9.99609 2.22807 9.99609 3.33218C9.99609 4.43628 10.8912 5.33134 11.9953 5.33134Z" stroke="#FBF0C4" stroke-width="1.33278" stroke-linecap="round" stroke-linejoin="round"/>
<path d="M3.99917 9.9954C5.10328 9.9954 5.99833 9.10035 5.99833 7.99624C5.99833 6.89213 5.10328 5.99707 3.99917 5.99707C2.89506 5.99707 2 6.89213 2 7.99624C2 9.10035 2.89506 9.9954 3.99917 9.9954Z" stroke="#FBF0C4" stroke-width="1.33278" stroke-linecap="round" stroke-linejoin="round"/>
<path d="M11.9953 14.6604C13.0994 14.6604 13.9944 13.7654 13.9944 12.6613C13.9944 11.5572 13.0994 10.6621 11.9953 10.6621C10.8912 10.6621 9.99609 11.5572 9.99609 12.6613C9.99609 13.7654 10.8912 14.6604 11.9953 14.6604Z" stroke="#FBF0C4" stroke-width="1.33278" stroke-linecap="round" stroke-linejoin="round"/>
<path d="M5.72266 9.00293L10.2741 11.6552" stroke="#FBF0C4" stroke-width="1.33278" stroke-linecap="round" stroke-linejoin="round"/>
<path d="M10.2674 4.33887L5.72266 6.9911" stroke="#FBF0C4" stroke-width="1.33278" stroke-linecap="round" stroke-linejoin="round"/>
</g>
<defs>
<clipPath id="clip0_637_308">
<rect width="15.9933" height="15.9933" fill="white"/>
</clipPath>
</defs>
</svg>
