<svg width="24" height="24" viewBox="0 0 24 24" fill="none" xmlns="http://www.w3.org/2000/svg">
<path d="M11.0117 2.81215C11.0546 2.58285 11.1762 2.37575 11.3557 2.22671C11.5351 2.07768 11.7611 1.99609 11.9943 1.99609C12.2276 1.99609 12.4535 2.07768 12.633 2.22671C12.8124 2.37575 12.9341 2.58285 12.9769 2.81215L14.0275 8.36783C14.1021 8.76282 14.294 9.12614 14.5783 9.41037C14.8625 9.69461 15.2258 9.88656 15.6208 9.96117L21.1765 11.0117C21.4058 11.0546 21.6129 11.1762 21.7619 11.3557C21.911 11.5351 21.9926 11.7611 21.9926 11.9943C21.9926 12.2276 21.911 12.4535 21.7619 12.633C21.6129 12.8124 21.4058 12.9341 21.1765 12.9769L15.6208 14.0275C15.2258 14.1021 14.8625 14.294 14.5783 14.5783C14.294 14.8625 14.1021 15.2258 14.0275 15.6208L12.9769 21.1765C12.9341 21.4058 12.8124 21.6129 12.633 21.7619C12.4535 21.911 12.2276 21.9926 11.9943 21.9926C11.7611 21.9926 11.5351 21.911 11.3557 21.7619C11.1762 21.6129 11.0546 21.4058 11.0117 21.1765L9.96117 15.6208C9.88656 15.2258 9.69461 14.8625 9.41037 14.5783C9.12614 14.294 8.76282 14.1021 8.36783 14.0275L2.81215 12.9769C2.58285 12.9341 2.37575 12.8124 2.22671 12.633C2.07768 12.4535 1.99609 12.2276 1.99609 11.9943C1.99609 11.7611 2.07768 11.5351 2.22671 11.3557C2.37575 11.1762 2.58285 11.0546 2.81215 11.0117L8.36783 9.96117C8.76282 9.88656 9.12614 9.69461 9.41037 9.41037C9.69461 9.12614 9.88656 8.76282 9.96117 8.36783L11.0117 2.81215Z" stroke="#FBF0C4" stroke-width="1.99917" stroke-linecap="round" stroke-linejoin="round"/>
<path d="M19.9922 2V5.99833" stroke="#FBF0C4" stroke-width="1.99917" stroke-linecap="round" stroke-linejoin="round"/>
<path d="M21.9905 3.99805H17.9922" stroke="#FBF0C4" stroke-width="1.99917" stroke-linecap="round" stroke-linejoin="round"/>
<path d="M3.99917 21.9905C5.10328 21.9905 5.99833 21.0955 5.99833 19.9914C5.99833 18.8872 5.10328 17.9922 3.99917 17.9922C2.89506 17.9922 2 18.8872 2 19.9914C2 21.0955 2.89506 21.9905 3.99917 21.9905Z" stroke="#FBF0C4" stroke-width="1.99917" stroke-linecap="round" stroke-linejoin="round"/>
</svg>
