<svg width="48" height="48" viewBox="0 0 48 48" fill="none" xmlns="http://www.w3.org/2000/svg">
<rect width="47.9973" height="47.9973" rx="23.9987" fill="#42262B"/>
<path d="M31.9885 21.9996C31.9885 26.9905 26.4518 32.1884 24.5925 33.7937C24.4193 33.9239 24.2085 33.9944 23.9918 33.9944C23.7751 33.9944 23.5642 33.9239 23.391 33.7937C21.5318 32.1884 15.9951 26.9905 15.9951 21.9996C15.9951 19.8787 16.8376 17.8448 18.3373 16.3451C19.837 14.8454 21.8709 14.0029 23.9918 14.0029C26.1126 14.0029 28.1466 14.8454 29.6463 16.3451C31.146 17.8448 31.9885 19.8787 31.9885 21.9996Z" stroke="#F0E5BB" stroke-width="1.99917" stroke-linecap="round" stroke-linejoin="round"/>
<path d="M23.99 24.9985C25.6461 24.9985 26.9887 23.6559 26.9887 21.9997C26.9887 20.3436 25.6461 19.001 23.99 19.001C22.3338 19.001 20.9912 20.3436 20.9912 21.9997C20.9912 23.6559 22.3338 24.9985 23.99 24.9985Z" stroke="#F0E5BB" stroke-width="1.99917" stroke-linecap="round" stroke-linejoin="round"/>
</svg>
