<svg width="40" height="40" viewBox="0 0 40 40" fill="none" xmlns="http://www.w3.org/2000/svg">
<path d="M0 19.9917C0 8.95057 8.95057 0 19.9917 0C31.0328 0 39.9833 8.95057 39.9833 19.9917C39.9833 31.0328 31.0328 39.9833 19.9917 39.9833C8.95057 39.9833 0 31.0328 0 19.9917Z" fill="#FBF0C4"/>
<g clip-path="url(#clip0_660_343)">
<path d="M16.6512 21.6577C19.4115 21.6577 21.6492 19.4201 21.6492 16.6598C21.6492 13.8995 19.4115 11.6619 16.6512 11.6619C13.891 11.6619 11.6533 13.8995 11.6533 16.6598C11.6533 19.4201 13.891 21.6577 16.6512 21.6577Z" stroke="#42262B" stroke-width="1.66597" stroke-linecap="round" stroke-linejoin="round"/>
<path d="M25.0562 18.6339C25.8437 18.9275 26.5444 19.4149 27.0935 20.051C27.6427 20.6871 28.0226 21.4514 28.198 22.2733C28.3735 23.0951 28.3389 23.948 28.0975 24.7529C27.8561 25.5578 27.4155 26.2889 26.8167 26.8785C26.2178 27.4681 25.48 27.8971 24.6714 28.126C23.8628 28.3548 23.0095 28.3761 22.1905 28.1878C21.3715 27.9995 20.6132 27.6078 19.9857 27.0487C19.3582 26.4897 18.8818 25.7815 18.6006 24.9896" stroke="#42262B" stroke-width="1.66597" stroke-linecap="round" stroke-linejoin="round"/>
<path d="M15.8184 14.9938H16.6513V18.3257" stroke="#42262B" stroke-width="1.66597" stroke-linecap="round" stroke-linejoin="round"/>
<path d="M23.9066 21.5577L24.4896 22.1492L22.1406 24.4982" stroke="#42262B" stroke-width="1.66597" stroke-linecap="round" stroke-linejoin="round"/>
</g>
<defs>
<clipPath id="clip0_660_343">
<rect width="19.9917" height="19.9917" fill="white" transform="translate(9.9873 9.99585)"/>
</clipPath>
</defs>
</svg>
